<svg xmlns="http://www.w3.org/2000/svg" xmlns:xlink="http://www.w3.org/1999/xlink" viewBox="0 0 280 250" preserveAspectRatio="xMidYMid" style="display: block; shape-rendering: auto; background: transparent;" width="280" height="250"><style type="text/css">
  .ld-text text {
    text-anchor: middle;
    dominant-baseline: middle;
    font-size: 63px;
    opacity: 0;
    user-select: none;
    pointer-events: none;
  }
</style>
<g style="transform-origin:140px 125px;transform:scale(1)" class="ld-text">
<g transform="translate(140,125)">
  <g transform="scale(0.7875) translate(0,0)"><g class="path" style="opacity: 1; transform-origin: -117.62px 3.48px; transform: matrix3d(0.91, 0, 0, 0, 0, 0.91, 0, 0, 0, 0, 0.91, 0, 0, 0, 0, 1); animation: 1s linear -0.55s infinite normal forwards running animate-g3zy6c35ti9; transform-box: view-box;"><path d="M59.92 25.56L59.92 25.56L59.92 26.30Q59.84 29.58 59.24 33.09Q58.63 36.61 57.54 40.13Q56.45 43.64 54.92 47.08Q53.40 50.52 51.50 53.66Q49.61 56.81 47.42 59.56Q45.23 62.31 42.81 64.42L42.81 64.42L36.99 61.06Q38.36 58.76 39.47 56.04Q40.59 53.33 41.48 50.36Q42.38 47.39 43.03 44.27Q43.67 41.14 44.10 38.06Q44.53 34.97 44.75 31.98Q44.96 28.99 44.96 26.30L44.96 26.30Q44.96 24.19 44.94 21.51Q44.92 18.84 44.63 16.06Q44.34 13.29 43.67 10.65Q43.01 8.02 41.70 5.95Q40.39 3.88 38.34 2.63Q36.29 1.38 33.24 1.38L33.24 1.38Q30.55 1.38 28.61 2.29Q26.68 3.21 25.33 4.76Q23.98 6.30 23.18 8.33Q22.38 10.36 21.93 12.61Q21.48 14.85 21.35 17.14Q21.21 19.42 21.21 21.45L21.21 21.45L21.21 32.35L38.05 32.35L38.05 38.80L21.21 38.80L21.21 52.47L5.70 52.47L5.70 23.88Q5.70 17.74 7.66 12.47Q9.61 7.20 13.18 3.31Q16.76-0.58 21.78-2.78Q26.80-4.99 32.97-4.99L32.97-4.99Q37.15-4.99 40.80-3.80Q44.45-2.61 47.46-0.52Q50.47 1.57 52.83 4.44Q55.20 7.31 56.78 10.71Q58.36 14.11 59.18 17.90Q60 21.69 59.92 25.56" style="fill: rgb(187, 40, 39);" transform="translate(-150.430,-26.234)"></path></g><g class="path" style="opacity: 1; transform-origin: -59.84px 3.58px; transform: matrix3d(0.91, 0, 0, 0, 0, 0.91, 0, 0, 0, 0, 0.91, 0, 0, 0, 0, 1); animation: 1s linear -0.44s infinite normal forwards running animate-g3zy6c35ti9; transform-box: view-box;"><path d="M114.57 7.35L114.57 52.47L101.37 52.47L101.37 47.08Q99.02 50.28 95.72 51.83Q92.42 53.37 88.48 53.37L88.48 53.37Q83.32 53.37 79.26 51.53Q75.20 49.70 72.38 46.51Q69.57 43.33 68.09 39.03Q66.60 34.74 66.60 29.81L66.60 29.81Q66.60 24.89 68.09 20.59Q69.57 16.30 72.38 13.11Q75.20 9.93 79.26 8.09Q83.32 6.26 88.48 6.26L88.48 6.26Q91.09 6.26 93.46 7.04Q95.82 7.82 97.79 9.25Q99.77 10.67 101.27 12.68Q102.77 14.70 103.63 17.16L103.63 17.16L109.49 7.35L114.57 7.35 zM101.29 29.81L101.29 29.81Q101.29 28.06 101.11 26.10Q100.94 24.15 100.51 22.24Q100.08 20.32 99.32 18.58Q98.55 16.84 97.36 15.50Q96.17 14.15 94.49 13.37Q92.81 12.59 90.59 12.59L90.59 12.59Q88.36 12.59 86.72 13.39Q85.08 14.19 83.91 15.54Q82.73 16.88 81.97 18.64Q81.21 20.40 80.78 22.31Q80.35 24.23 80.18 26.16Q80 28.09 80 29.81L80 29.81Q80 31.53 80.18 33.49Q80.35 35.44 80.78 37.35Q81.21 39.27 81.97 41.02Q82.73 42.78 83.91 44.13Q85.08 45.48 86.72 46.28Q88.36 47.08 90.59 47.08L90.59 47.08Q92.62 47.08 94.20 46.24Q95.78 45.40 96.97 43.99Q98.16 42.59 98.98 40.79Q99.80 38.99 100.31 37.08Q100.82 35.17 101.05 33.27Q101.29 31.38 101.29 29.81" style="fill: rgb(187, 40, 39);" transform="translate(-150.430,-26.234)"></path></g><g class="path" style="opacity: 1; transform-origin: -18.24px -6.71px; transform: matrix3d(0.91, 0, 0, 0, 0, 0.91, 0, 0, 0, 0, 0.91, 0, 0, 0, 0, 1); animation: 1s linear -0.33s infinite normal forwards running animate-g3zy6c35ti9; transform-box: view-box;"><path d="M138.79 0.28L138.79 52.47L125.59 52.47L125.59-13.43L130.66-13.43L138.79 0.28" style="fill: rgb(187, 40, 39);" transform="translate(-150.430,-26.234)"></path></g><g class="path" style="opacity: 1; transform-origin: 22.44px 0.18px; transform: matrix3d(0.91, 0, 0, 0, 0, 0.91, 0, 0, 0, 0, 0.91, 0, 0, 0, 0, 1); animation: 1s linear -0.22s infinite normal forwards running animate-g3zy6c35ti9; transform-box: view-box;"><path d="M195.94 26.61L195.94 26.61Q195.94 31.18 194.82 36.14Q193.71 41.10 191.72 45.87Q189.73 50.63 186.95 54.83Q184.18 59.03 180.86 62.08L180.86 62.08L175.90 59.38Q176.95 57.43 177.89 55.01Q178.83 52.59 179.59 49.87Q180.35 47.16 180.96 44.27Q181.56 41.38 181.97 38.54Q182.38 35.71 182.60 33.04Q182.81 30.36 182.81 28.06L182.81 28.06Q182.81 26.53 182.70 24.79Q182.58 23.06 182.21 21.32Q181.84 19.58 181.21 17.98Q180.59 16.38 179.55 15.17Q178.52 13.95 177.05 13.21Q175.59 12.47 173.59 12.47L173.59 12.47Q171.64 12.47 170.12 13.35Q168.59 14.23 167.42 15.65Q166.25 17.08 165.41 18.92Q164.57 20.75 164.04 22.68Q163.52 24.62 163.28 26.49Q163.05 28.37 163.05 29.85L163.05 29.85L163.05 52.47L149.80 52.47L149.80-9.25L163.01-9.25L163.01 13.99Q165.55 10.28 169.24 8.27Q172.93 6.26 177.42 6.26L177.42 6.26Q182.11 6.26 185.59 7.78Q189.06 9.31 191.37 12.02Q193.67 14.74 194.80 18.47Q195.94 22.20 195.94 26.61" style="fill: rgb(187, 40, 39);" transform="translate(-150.430,-26.234)"></path></g><g class="path" style="opacity: 1; transform-origin: 75.67px 3.58px; transform: matrix3d(0.91, 0, 0, 0, 0, 0.91, 0, 0, 0, 0, 0.91, 0, 0, 0, 0, 1); animation: 1s linear -0.11s infinite normal forwards running animate-g3zy6c35ti9; transform-box: view-box;"><path d="M250.08 7.35L250.08 52.47L236.88 52.47L236.88 47.08Q234.53 50.28 231.23 51.83Q227.93 53.37 223.98 53.37L223.98 53.37Q218.83 53.37 214.77 51.53Q210.70 49.70 207.89 46.51Q205.08 43.33 203.59 39.03Q202.11 34.74 202.11 29.81L202.11 29.81Q202.11 24.89 203.59 20.59Q205.08 16.30 207.89 13.11Q210.70 9.93 214.77 8.09Q218.83 6.26 223.98 6.26L223.98 6.26Q226.60 6.26 228.96 7.04Q231.33 7.82 233.30 9.25Q235.27 10.67 236.78 12.68Q238.28 14.70 239.14 17.16L239.14 17.16L245 7.35L250.08 7.35 zM236.80 29.81L236.80 29.81Q236.80 28.06 236.62 26.10Q236.45 24.15 236.02 22.24Q235.59 20.32 234.82 18.58Q234.06 16.84 232.87 15.50Q231.68 14.15 230 13.37Q228.32 12.59 226.09 12.59L226.09 12.59Q223.87 12.59 222.23 13.39Q220.59 14.19 219.41 15.54Q218.24 16.88 217.48 18.64Q216.72 20.40 216.29 22.31Q215.86 24.23 215.68 26.16Q215.51 28.09 215.51 29.81L215.51 29.81Q215.51 31.53 215.68 33.49Q215.86 35.44 216.29 37.35Q216.72 39.27 217.48 41.02Q218.24 42.78 219.41 44.13Q220.59 45.48 222.23 46.28Q223.87 47.08 226.09 47.08L226.09 47.08Q228.13 47.08 229.71 46.24Q231.29 45.40 232.48 43.99Q233.67 42.59 234.49 40.79Q235.31 38.99 235.82 37.08Q236.33 35.17 236.56 33.27Q236.80 31.38 236.80 29.81" style="fill: rgb(187, 40, 39);" transform="translate(-150.430,-26.234)"></path></g><g class="path" style="opacity: 1; transform-origin: 132.15px -4.1px; transform: matrix3d(0.91, 0, 0, 0, 0, 0.91, 0, 0, 0, 0, 0.91, 0, 0, 0, 0, 1); animation: 1s linear 0s infinite normal forwards running animate-g3zy6c35ti9; transform-box: view-box;"><path d="M306.56-9.25L306.56 52.47L301.48 52.47L295.63 42.67Q294.77 45.13 293.26 47.12Q291.76 49.11 289.79 50.54Q287.81 51.96 285.45 52.74Q283.09 53.52 280.47 53.52L280.47 53.52Q275.31 53.52 271.25 51.69Q267.19 49.85 264.38 46.67Q261.56 43.49 260.08 39.19Q258.59 34.89 258.59 29.97L258.59 29.97Q258.59 25.05 260.08 20.75Q261.56 16.45 264.38 13.29Q267.19 10.13 271.25 8.29Q275.31 6.45 280.47 6.45L280.47 6.45Q284.41 6.45 287.71 7.98Q291.02 9.50 293.36 12.74L293.36 12.74L293.36-9.25L306.56-9.25 zM293.28 29.97L293.28 29.97Q293.28 28.41 293.05 26.53Q292.81 24.66 292.30 22.74Q291.80 20.83 290.98 19.03Q290.16 17.24 288.96 15.83Q287.77 14.42 286.19 13.58Q284.61 12.74 282.58 12.74L282.58 12.74Q280.35 12.74 278.71 13.54Q277.07 14.34 275.90 15.69Q274.73 17.04 273.96 18.80Q273.20 20.56 272.77 22.47Q272.34 24.38 272.17 26.32Q271.99 28.25 271.99 29.97L271.99 29.97Q271.99 31.69 272.17 33.62Q272.34 35.56 272.77 37.47Q273.20 39.38 273.96 41.16Q274.73 42.94 275.90 44.29Q277.07 45.63 278.71 46.43Q280.35 47.24 282.58 47.24L282.58 47.24Q284.80 47.24 286.48 46.45Q288.16 45.67 289.36 44.33Q290.55 42.98 291.31 41.24Q292.07 39.50 292.50 37.57Q292.93 35.63 293.11 33.68Q293.28 31.73 293.28 29.97" style="fill: rgb(187, 40, 39);" transform="translate(-150.430,-26.234)"></path></g></g><text dy="0.35em" fill="#bb2827" font-family="Aclonica" font-size="63">Aalhad</text>
</g>
</g><style type="text/css">@keyframes animate-g3zy6c35ti9 { 0.00% {transform: translate(0.00px,0.00px) rotate(0.00deg) scale(0.91, 0.91) skew(0deg, 0.00deg) ;opacity: 1.00;}4.00% {transform: translate(0.00px,0.00px) rotate(0.00deg) scale(0.91, 0.91) ;}8.00% {animation-timing-function: cubic-bezier(0.69,0.60,0.35,0.27);transform: translate(0.00px,0.00px) rotate(0.00deg) scale(0.91, 0.91) ;}14.00% {transform: translate(0.00px,0.00px) rotate(0.00deg) scale(0.93, 0.93) ;}18.00% {transform: translate(0.00px,0.00px) rotate(0.00deg) scale(0.94, 0.94) ;}22.00% {animation-timing-function: cubic-bezier(0.67,0.66,0.34,0.33);transform: translate(0.00px,0.00px) rotate(0.00deg) scale(0.96, 0.96) ;}26.00% {transform: translate(0.00px,0.00px) rotate(0.00deg) scale(0.97, 0.97) ;}30.00% {transform: translate(0.00px,0.00px) rotate(0.00deg) scale(0.99, 0.99) ;}34.00% {animation-timing-function: cubic-bezier(0.65,0.71,0.32,0.38);transform: translate(0.00px,0.00px) rotate(0.00deg) scale(1.01, 1.01) ;}40.00% {animation-timing-function: cubic-bezier(0.64,0.74,0.31,0.41);transform: translate(0.00px,0.00px) rotate(0.00deg) scale(1.02, 1.02) ;}46.00% {animation-timing-function: cubic-bezier(0.60,0.91,0.23,0.63);transform: translate(0.00px,0.00px) rotate(0.00deg) scale(1.03, 1.03) ;}50.00% {transform: translate(0.00px,0.00px) rotate(0.00deg) scale(1.03, 1.03) ;}54.00% {transform: translate(0.00px,0.00px) rotate(0.00deg) scale(1.03, 1.03) ;}58.00% {animation-timing-function: cubic-bezier(0.69,0.60,0.35,0.27);transform: translate(0.00px,0.00px) rotate(0.00deg) scale(1.03, 1.03) ;}64.00% {transform: translate(0.00px,0.00px) rotate(0.00deg) scale(1.01, 1.01) ;}68.00% {transform: translate(0.00px,0.00px) rotate(0.00deg) scale(1.00, 1.00) ;}72.00% {animation-timing-function: cubic-bezier(0.67,0.66,0.34,0.33);transform: translate(0.00px,0.00px) rotate(0.00deg) scale(0.98, 0.98) ;}76.00% {animation-timing-function: cubic-bezier(0.66,0.68,0.33,0.35);transform: translate(0.00px,0.00px) rotate(0.00deg) scale(0.97, 0.97) ;}82.00% {animation-timing-function: cubic-bezier(0.65,0.71,0.32,0.38);transform: translate(0.00px,0.00px) rotate(0.00deg) scale(0.94, 0.94) ;}88.00% {animation-timing-function: cubic-bezier(0.65,0.73,0.31,0.40);transform: translate(0.00px,0.00px) rotate(0.00deg) scale(0.92, 0.92) ;}94.00% {animation-timing-function: cubic-bezier(0.63,0.80,0.28,0.48);transform: translate(0.00px,0.00px) rotate(0.00deg) scale(0.91, 0.91) ;}100.00% {animation-timing-function: cubic-bezier(0.63,0.80,0.28,0.48);transform: translate(0.00px,0.00px) rotate(0.00deg) scale(0.91, 0.91) ;} }</style><!-- [ldio] generated by https://loading.io --></svg>
